<svg version="1.1" id="Layer_1" xmlns="http://www.w3.org/2000/svg" xmlns:xlink="http://www.w3.org/1999/xlink" x="0px" y="0px"
	 width="100%" viewBox="0 0 1024 1024" enable-background="new 0 0 1024 1024" xml:space="preserve">
<path fill="#000000" opacity="1.000000" stroke="none" 
	d="
M346.342285,594.237976 
	C346.340759,615.364746 346.400269,636.024231 346.312592,656.683044 
	C346.268036,667.182556 337.401398,673.257019 328.374146,669.109619 
	C323.376343,666.813538 321.585693,662.668030 321.599243,657.357971 
	C321.652374,636.532349 321.613129,615.706604 321.607056,594.880859 
	C321.605133,588.332825 321.552734,588.248596 314.851898,588.220093 
	C305.688690,588.181152 296.524780,588.257751 287.362061,588.179504 
	C277.082306,588.091675 272.380798,583.893677 271.166138,573.785645 
	C270.928680,571.809814 270.953400,569.795593 270.953278,567.799072 
	C270.948517,493.992493 270.950226,420.185883 270.964417,346.379303 
	C270.967163,332.110779 275.424408,327.734314 289.862274,327.725128 
	C297.859375,327.720032 305.856506,327.730835 313.853607,327.723206 
	C321.382935,327.716034 321.560120,327.586090 321.581299,319.786682 
	C321.627899,302.626312 321.610596,285.465820 321.621094,268.305359 
	C321.624664,262.474152 321.596497,256.642639 321.648407,250.811859 
	C321.721802,242.572800 326.426819,237.613022 334.002319,237.706467 
	C341.432587,237.798111 346.297333,242.989868 346.319489,251.115234 
	C346.373993,271.107880 346.338745,291.100739 346.340149,311.093506 
	C346.340424,314.925446 346.545685,318.770996 346.288696,322.585510 
	C346.027893,326.457489 347.349243,327.903595 351.370087,327.802673 
	C361.027191,327.560333 370.695709,327.820007 380.357300,327.696381 
	C390.584503,327.565521 396.529205,332.696655 396.489319,343.803101 
	C396.215759,419.941254 396.350464,496.080841 396.348358,572.219971 
	C396.348083,583.091736 391.556274,588.028992 380.542450,588.186401 
	C371.047974,588.322083 361.546204,588.345215 352.054901,588.116333 
	C347.824921,588.014282 345.661285,589.265808 346.342285,594.237976 
z"/>
<path fill="#000000" opacity="1.000000" stroke="none" 
	d="
M486.452026,371.873596 
	C488.174927,374.750854 488.360352,377.534546 488.355042,380.410278 
	C488.319824,399.408905 488.503021,418.409912 488.231415,437.404694 
	C488.160461,442.367615 489.423218,444.041809 494.598602,444.006348 
	C505.236633,443.933350 515.926453,442.989594 526.527405,444.636932 
	C533.455750,445.713562 537.439880,449.772339 538.444153,456.781616 
	C538.867371,459.735260 538.994995,462.753235 538.996277,465.742065 
	C539.022644,529.237610 539.016907,592.733093 538.986267,656.228638 
	C538.985229,658.382874 538.737366,660.546692 538.471558,662.689514 
	C537.361389,671.640137 532.691467,676.089478 523.655151,676.284668 
	C513.660278,676.500549 503.653473,676.538330 493.660583,676.295654 
	C489.477936,676.194092 488.243164,677.607605 488.263245,681.724365 
	C488.404785,710.721680 488.361115,739.720032 488.313232,768.717896 
	C488.302856,775.010437 484.960815,779.325867 479.231293,780.902405 
	C474.204559,782.285583 468.685425,780.132446 465.814240,775.506165 
	C463.902466,772.425720 463.678864,768.933716 463.681549,765.392578 
	C463.702301,737.894470 463.692505,710.396423 463.681793,682.898315 
	C463.679260,676.396545 463.661285,676.390320 457.006805,676.382202 
	C448.674042,676.372009 440.341095,676.409546 432.008606,676.361328 
	C419.169830,676.286987 413.873535,670.981750 413.831238,657.992798 
	C413.769348,638.994324 413.818451,619.995483 413.814697,600.996826 
	C413.805511,554.833374 413.799316,508.669952 413.772400,462.506500 
	C413.769745,457.939392 414.168060,453.453552 417.019958,449.684509 
	C420.714508,444.801788 426.199341,443.916840 431.786652,443.829834 
	C440.616791,443.692322 449.455566,443.678253 458.281952,443.924805 
	C462.353119,444.038544 463.807220,442.745483 463.766663,438.531738 
	C463.580566,419.201538 463.618896,399.868256 463.710571,380.536682 
	C463.755615,371.037811 469.078033,366.024475 477.963409,366.660461 
	C481.564148,366.918182 484.244019,368.616272 486.452026,371.873596 
M491.499969,652.003296 
	C496.662354,652.004211 501.824799,652.018860 506.987152,652.002686 
	C513.943054,651.980957 514.071411,651.876587 514.106995,645.134583 
	C514.144714,637.984619 514.086365,630.834229 514.122009,623.684204 
	C514.257263,596.545959 514.475708,569.408081 514.543274,542.269653 
	C514.601257,518.976746 514.420410,495.683044 514.533081,472.390594 
	C514.553040,468.279449 512.254883,468.320404 509.396484,468.323944 
	C487.581665,468.351044 465.766113,468.431458 443.952606,468.261353 
	C439.541870,468.226990 438.260406,469.756897 438.269135,474.073029 
	C438.385284,531.524109 438.395233,588.975647 438.262451,646.426636 
	C438.252045,650.918640 439.799805,652.137878 444.040344,652.087646 
	C459.525024,651.903809 475.013153,652.007507 491.499969,652.003296 
z"/>
<path fill="#000000" opacity="1.000000" stroke="none" 
	d="
M710.254761,443.211426 
	C701.998413,459.632782 698.112671,476.936920 695.339050,494.567139 
	C695.082642,496.197205 694.772034,497.854218 694.201294,499.392914 
	C692.305115,504.504639 688.065613,507.789581 683.501770,507.864838 
	C679.076477,507.937805 674.425354,504.695038 672.900330,499.380951 
	C671.352966,493.989166 670.743103,488.332214 669.644470,482.806946 
	C667.305908,471.046570 664.227112,459.517120 659.398132,448.482269 
	C649.601990,426.096558 631.543640,413.989136 608.894287,407.462494 
	C599.622620,404.790771 590.159119,403.048828 580.690613,401.272217 
	C575.542358,400.306213 571.148499,397.839447 569.786865,392.285797 
	C568.179810,385.731323 571.359680,380.456543 578.285217,378.735504 
	C586.812866,376.616302 595.522339,375.236206 604.071350,373.193939 
	C636.989685,365.330109 657.420166,344.896118 665.682434,312.039062 
	C668.073914,302.528656 669.648254,292.866974 671.891235,283.348267 
	C674.122009,273.881287 682.815857,270.084717 689.566711,275.222961 
	C692.337524,277.331848 693.786621,280.291321 694.450500,283.667694 
	C696.722900,295.224670 699.079285,306.739532 702.269104,318.113403 
	C710.250061,346.571198 728.932129,363.751556 756.937134,371.629639 
	C766.066711,374.197845 775.296265,376.215424 784.666809,377.650299 
	C786.783691,377.974487 788.903076,378.512726 790.915100,379.244415 
	C795.260315,380.824493 797.671692,384.235260 798.083252,388.649017 
	C798.501709,393.136444 796.351990,396.659912 792.474060,399.053101 
	C787.639160,402.036865 782.029602,402.166931 776.706665,403.347473 
	C759.590332,407.143524 742.677002,411.488892 728.348816,422.336792 
	C720.963989,427.927826 714.894531,434.726288 710.254761,443.211426 
M656.720276,403.716675 
	C669.329651,413.399933 676.361145,427.098206 683.166443,441.659119 
	C688.446167,429.680542 694.016846,418.900787 702.830566,410.198242 
	C711.560181,401.578766 722.268799,395.864502 734.225647,389.661316 
	C709.069519,379.729706 691.770752,363.268219 682.859741,336.622650 
	C673.909851,362.490295 657.381836,379.329315 632.976257,389.750885 
	C641.955322,394.065308 649.460205,398.006165 656.720276,403.716675 
z"/>
</svg>